<?xml version="1.0" encoding="utf-8"?>
<!-- Generator: Adobe Illustrator 19.2.0, SVG Export Plug-In . SVG Version: 6.00 Build 0)  -->
<svg version="1.1" id="Layer_1" xmlns:sketch="http://www.bohemiancoding.com/sketch/ns"
	 xmlns="http://www.w3.org/2000/svg" xmlns:xlink="http://www.w3.org/1999/xlink" x="0px" y="0px" viewBox="0 0 141.5 33"
	 style="enable-background:new 0 0 141.5 33;" xml:space="preserve">
<style type="text/css">
	.st0{fill:#00987B;}
</style>
<title>EdSurgeLogo</title>
<description>Created with Sketch.</description>
<path class="st0" d="M33,31.8c0,0.7-0.6,1.2-1.2,1.2H1.2C0.6,33,0,32.4,0,31.8V1.2C0,0.6,0.6,0,1.2,0h30.5C32.4,0,33,0.6,33,1.2
	V31.8z M5.5,26.5l16.3-7.9c0,0,0.6-0.4,0.6-0.7c0-0.3-0.2-0.5-0.2-0.5l-2.5-2.2c0,0-0.2-0.2-0.2-0.4c0-0.2,0.2-0.5,0.2-0.5l7.7-8.3
	l-15.7,8.4c0,0-0.6,0.4-0.6,0.7c0,0.3,0.2,0.5,0.2,0.5l2.5,2.2c0,0,0.2,0.2,0.2,0.4c0,0.2-0.2,0.5-0.2,0.5L5.5,26.5z M40.6,25.5V7.3
	h13.7v3.5h-9.7v3.7h8.5v3.5h-8.5v3.8h9.8v3.5H40.6z M66,25.5v-2c-1,1.3-2.3,2.3-4.3,2.3c-3.2,0-6.3-2.5-6.3-7.2v-0.1
	c0-4.6,3-7.2,6.3-7.2c2.1,0,3.4,1,4.3,2.1V6.5H70v18.9H66z M66.1,18.5c0-2.3-1.5-3.8-3.4-3.8c-1.8,0-3.4,1.5-3.4,3.8v0.1
	c0,2.3,1.6,3.8,3.4,3.8C64.6,22.4,66.1,20.8,66.1,18.5L66.1,18.5z M79,25.7c-2.7,0-5.5-1-7.7-2.9l2.4-2.8c1.6,1.3,3.3,2.2,5.4,2.2
	c1.6,0,2.6-0.6,2.6-1.7v-0.1c0-1-0.6-1.5-3.7-2.3c-3.7-0.9-6-1.9-6-5.5v-0.1c0-3.3,2.6-5.5,6.3-5.5c2.6,0,4.9,0.8,6.7,2.3l-2.1,3
	c-1.6-1.1-3.2-1.8-4.7-1.8c-1.5,0-2.3,0.7-2.3,1.6v0.1c0,1.2,0.8,1.6,3.9,2.4c3.7,1,5.7,2.3,5.7,5.4v0.1
	C85.7,23.7,82.9,25.7,79,25.7z M96.1,25.5v-2c-0.9,1.2-2.1,2.2-4.1,2.2c-3,0-4.7-2-4.7-5.2v-9h3.9v7.7c0,1.9,0.9,2.8,2.4,2.8
	c1.5,0,2.5-1,2.5-2.8v-7.7h3.9v13.9H96.1z M110.7,15.4c-2.6,0-4.2,1.6-4.2,4.9v5.1h-3.9V11.6h3.9v2.8c0.8-1.9,2.1-3.2,4.4-3.1v4.1
	H110.7z M118.3,29.6c-2.3,0-4.4-0.5-6.1-1.5l1.3-3c1.4,0.8,2.8,1.3,4.7,1.3c2.7,0,4-1.3,4-3.8v-0.7c-1.2,1.4-2.4,2.3-4.5,2.3
	c-3.2,0-6.2-2.4-6.2-6.5v-0.1c0-4.1,3-6.5,6.2-6.5c2.1,0,3.4,0.9,4.5,2.1v-1.8h3.9v10.7C126,27.5,123.5,29.6,118.3,29.6z
	 M122.2,17.8c0-1.9-1.5-3.2-3.4-3.2s-3.4,1.3-3.4,3.2v0.1c0,1.9,1.5,3.2,3.4,3.2S122.2,19.7,122.2,17.8L122.2,17.8z M141.4,19.9
	h-9.7c0.4,1.8,1.6,2.7,3.4,2.7c1.3,0,2.3-0.4,3.4-1.4l2.3,2c-1.3,1.6-3.2,2.6-5.7,2.6c-4.2,0-7.3-2.9-7.3-7.2v-0.1
	c0-4,2.8-7.2,6.9-7.2c4.6,0,6.8,3.6,6.8,7.5v0.1C141.5,19.3,141.5,19.5,141.4,19.9z M134.7,14.5c-1.6,0-2.7,1.2-3,3h5.9
	C137.4,15.7,136.4,14.5,134.7,14.5z"/>
</svg>
